HIERARCHY
ROOT Hips
{
 OFFSET 0.000000 0.000000 0.000000
 CHANNELS 6 Xposition Yposition Zposition Yrotation Xrotation Zrotation
 JOINT Chest
 {
  OFFSET 0.000000 10.354800 0.006500
  CHANNELS 3 Yrotation Xrotation Zrotation
  JOINT Chest2
  {
   OFFSET 0.000000 10.435800 -0.013200
   CHANNELS 3 Yrotation Xrotation Zrotation
   JOINT Chest3
   {
    OFFSET 0.000000 10.393700 0.000000
    CHANNELS 3 Yrotation Xrotation Zrotation
    JOINT Chest4
    {
     OFFSET 0.000000 10.383100 0.000000
     CHANNELS 3 Yrotation Xrotation Zrotation
     JOINT Neck
     {
      OFFSET 0.000000 15.694000 0.000000
      CHANNELS 3 Yrotation Xrotation Zrotation
      JOINT Head
      {
       OFFSET 0.000000 9.711000 -0.028000
       CHANNELS 3 Yrotation Xrotation Zrotation
       End Site
       {
        OFFSET 0.000000 18.578700 -0.014800
       }
      }
     }
     JOINT RightCollar
     {
      OFFSET -3.157200 10.367500 0.000000
      CHANNELS 3 Yrotation Xrotation Zrotation
      JOINT RightShoulder
      {
       OFFSET -14.482500 0.000000 0.000000
       CHANNELS 3 Yrotation Xrotation Zrotation
       JOINT RightElbow
       {
        OFFSET 0.000000 -31.707800 0.000000
        CHANNELS 3 Yrotation Xrotation Zrotation
        JOINT RightWrist
        {
         OFFSET 0.000000 -25.659300 0.000000
         CHANNELS 3 Yrotation Xrotation Zrotation
         End Site
         {
          OFFSET 0.000000 -18.994300 0.000000
         }
        }
       }
      }
     }
     JOINT LeftCollar
     {
      OFFSET 3.157200 10.367500 0.000000
      CHANNELS 3 Yrotation Xrotation Zrotation
      JOINT LeftShoulder
      {
       OFFSET 14.482500 0.000000 0.000000
       CHANNELS 3 Yrotation Xrotation Zrotation
       JOINT LeftElbow
       {
        OFFSET 0.000000 -31.707800 0.000000
        CHANNELS 3 Yrotation Xrotation Zrotation
        JOINT LeftWrist
        {
         OFFSET 0.000000 -25.659300 0.000000
         CHANNELS 3 Yrotation Xrotation Zrotation
         End Site
         {
          OFFSET 0.000000 -18.994300 0.000000
         }
        }
       }
      }
     }
    }
   }
  }
 }
 JOINT RightHip
 {
  OFFSET -8.365600 -0.032100 -0.003200
  CHANNELS 3 Yrotation Xrotation Zrotation
  JOINT RightKnee
  {
   OFFSET 0.000000 -43.980000 0.003100
   CHANNELS 3 Yrotation Xrotation Zrotation
   JOINT RightAnkle
   {
    OFFSET 0.000000 -42.882800 0.005200
    CHANNELS 3 Yrotation Xrotation Zrotation
    JOINT RightToe
    {
     OFFSET 0.000000 -4.915500 10.826300
     CHANNELS 3 Yrotation Xrotation Zrotation
     End Site
     {
      OFFSET 0.000000 -1.517500 6.175900
     }
    }
   }
  }
 }
 JOINT LeftHip
 {
  OFFSET 8.365600 -0.032100 -0.003200
  CHANNELS 3 Yrotation Xrotation Zrotation
  JOINT LeftKnee
  {
   OFFSET 0.000000 -43.980000 0.003100
   CHANNELS 3 Yrotation Xrotation Zrotation
   JOINT LeftAnkle
   {
    OFFSET 0.000000 -42.882800 0.005200
    CHANNELS 3 Yrotation Xrotation Zrotation
    JOINT LeftToe
    {
     OFFSET 0.000000 -4.915500 10.826300
     CHANNELS 3 Yrotation Xrotation Zrotation
     End Site
     {
      OFFSET 0.000000 -1.517500 6.175900
     }
    }
   }
  }
 }
}
MOTION
Frames: 12
Frame Time: 0.008333
0.000000 91.618600 0.000000 0.000000 -5.767877 0.000000 0.000000 11.653817 0.000000 0.000000 -5.885947 0.000000 0.000000 -0.000000 0.000000 0.000000 -0.000000 0.000000 0.000000 12.528835 0.000000 0.000000 0.711642 0.000000 0.000000 -0.000000 0.000000 0.000000 0.000000 -90.000000 0.000000 -2.309062 0.000000 0.000000 2.309062 0.000000 0.000000 -0.000000 0.000000 0.000000 -0.000000 90.000000 0.000000 -2.309062 0.000000 0.000000 2.309062 0.000000 0.000000 8.520406 0.000000 0.000000 1.905762 0.000000 -0.000000 -4.658285 0.000000 0.000000 -0.000000 0.000000 0.000000 8.520406 0.000000 0.000000 1.905762 0.000000 -0.000000 -4.658285 0.000000 0.000000 -0.000000 0.000000
-6.944012 126.653137 33.813252 175.516025 -22.718454 -3.353263 -1.765616 13.504347 3.082144 -0.172305 1.113987 0.279030 -0.296905 1.923592 0.466234 -1.624331 12.133504 2.796441 -3.510838 20.397333 -2.768488 -3.130166 -4.062225 -2.162499 3.236056 6.773628 -4.721194 -1.226781 -12.809493 -8.181251 -129.064832 -61.898024 152.720787 -16.825766 -18.628302 -36.782095 -1.280242 10.419588 0.098072 20.923615 -12.386444 -4.256134 139.552574 -51.924765 -164.812837 24.473743 -3.217322 36.027542 13.592585 -58.390472 -3.120231 -125.358881 81.929259 -118.905306 4.187785 -13.889991 -13.206670 -0.002863 -0.000521 -0.001300 -18.247862 -58.684001 10.092902 101.702061 82.375494 95.340085 -9.168304 -9.242550 1.341620 -0.007307 0.007078 -0.003318
-6.947817 126.657817 33.820799 175.567330 -22.797190 -3.345748 -1.800206 13.494373 3.065301 -0.174222 1.115562 0.278831 -0.300201 1.926267 0.465896 -1.644693 12.196550 2.784612 -3.515160 20.296145 -2.778069 -3.137319 -4.089124 -2.182612 3.244383 6.770324 -4.712013 -1.263280 -12.844022 -8.175942 -129.170002 -61.868010 152.796640 -16.822567 -18.625963 -36.762863 -1.234672 10.346622 0.079003 20.891640 -12.350889 -4.248164 139.572697 -51.918425 -164.827218 24.460401 -3.210552 36.022330 13.570679 -58.309603 -3.131233 -125.311656 81.923747 -118.876534 4.213751 -13.837332 -13.206793 -0.008539 0.005242 -0.003877 -18.212195 -58.618738 10.004565 101.327707 82.367464 94.964512 -9.189218 -9.154626 1.324960 -0.005491 0.003426 -0.002493
-6.951224 126.663224 33.830060 175.607396 -22.889165 -3.335113 -1.817650 13.474949 3.054905 -0.181115 1.138888 0.276135 -0.303611 1.929186 0.465533 -1.664245 12.150561 2.783224 -3.533326 20.300552 -2.808206 -3.142590 -4.094020 -2.201436 3.253826 6.841411 -4.694634 -1.288425 -12.812707 -8.190040 -129.336343 -61.816932 152.914063 -16.816491 -18.622990 -36.743987 -1.216307 10.411428 0.052910 20.890070 -12.337682 -4.266067 139.571744 -51.908832 -164.835356 24.456815 -3.231498 35.995646 13.578574 -58.221761 -3.132338 -125.239392 81.918064 -118.835972 4.198273 -13.783838 -13.167061 -0.020085 0.010905 -0.009121 -18.160829 -58.539403 9.911961 101.130302 82.362434 94.762441 -9.189792 -9.099924 1.305830 -0.005128 0.003315 -0.002328
-6.951998 126.669247 33.841290 175.656174 -22.989073 -3.341868 -1.839105 13.485448 3.058352 -0.183470 1.140729 0.275905 -0.307569 1.932165 0.465117 -1.687632 12.138640 2.777714 -3.548189 20.291785 -2.834199 -3.150512 -4.125586 -2.222767 3.267308 6.879664 -4.679548 -1.353148 -12.819945 -8.177607 -129.438371 -61.796932 152.993292 -16.807076 -18.617019 -36.723775 -1.196168 10.453117 0.030694 20.874915 -12.312872 -4.261818 139.566385 -51.902991 -164.836873 24.467607 -3.266863 35.961268 13.605655 -58.137639 -3.122427 -125.212976 81.882598 -118.799533 4.159644 -13.745915 -13.140716 -0.012596 0.005775 -0.005719 -18.170684 -58.451737 9.888196 101.073578 82.373853 94.680724 -9.207834 -9.036767 1.288771 -0.002408 0.002647 -0.001094
-6.956869 126.676403 33.851374 175.697735 -23.109112 -3.321711 -1.867449 13.560507 3.027731 -0.170073 1.096175 0.283746 -0.312100 1.935439 0.464759 -1.714922 12.147177 2.769781 -3.562452 20.261184 -2.860305 -3.159701 -4.159423 -2.247329 3.283023 6.911018 -4.672325 -1.432538 -12.836623 -8.146752 -129.551936 -61.778795 153.081747 -16.799684 -18.606864 -36.702282 -1.173335 10.475073 0.007476 20.899019 -12.319030 -4.305229 139.532922 -51.949828 -164.850920 24.480900 -3.294792 35.932460 13.599076 -58.017819 -3.128921 -125.327817 81.892090 -118.933185 4.168472 -13.737695 -13.129173 -0.039624 0.021512 -0.017997 -18.097967 -58.348157 9.770044 100.997332 82.377890 94.597353 -9.220069 -8.999382 1.280444 -0.008716 0.008050 -0.003958
-6.959607 126.683280 33.864991 175.754085 -23.221970 -3.320057 -1.902217 13.628559 3.012775 -0.159875 1.048510 0.288944 -0.316471 1.939598 0.464249 -1.743967 12.196874 2.758186 -3.571054 20.191487 -2.883776 -3.169463 -4.194590 -2.273645 3.303683 6.902741 -4.667648 -1.508860 -12.838528 -8.109954 -129.692728 -61.754600 153.186407 -16.795761 -18.595803 -36.685922 -1.146865 10.460956 -0.012339 20.933622 -12.326045 -4.349717 139.496194 -51.892275 -164.823889 24.474676 -3.218076 35.906440 13.614119 -57.913804 -3.141037 -125.383185 81.868873 -118.975179 4.169048 -13.727546 -13.143041 -0.030811 0.017004 -0.013993 -18.064236 -58.246856 9.680499 100.798052 82.372746 94.394368 -9.260939 -8.949199 1.273431 -0.016277 0.008733 -0.007391
-6.963297 126.691248 33.878233 175.809684 -23.349916 -3.312568 -1.911603 13.582739 3.010401 -0.181575 1.122801 0.278785 -0.320231 1.945132 0.463423 -1.773258 12.251134 2.747299 -3.576569 20.122180 -2.911743 -3.179289 -4.229380 -2.299965 3.313630 6.916816 -4.666713 -1.577873 -12.862142 -8.065580 -129.831511 -61.730611 153.292773 -16.793596 -18.586536 -36.679937 -1.118829 10.447442 -0.032644 20.926146 -12.303701 -4.342331 139.475218 -51.824301 -164.785057 24.475861 -3.192018 35.876721 13.626124 -57.792187 -3.138109 -125.562242 81.871083 -119.169824 4.140541 -13.747950 -13.129751 -0.037616 0.016137 -0.017083 -18.028717 -58.127015 9.592869 100.618502 82.379196 94.196756 -9.285223 -8.915045 1.270815 -0.012711 0.006330 -0.005772
-6.964746 126.699162 33.894580 175.869327 -23.474436 -3.320577 -1.933468 13.572762 3.010379 -0.192738 1.152666 0.274439 -0.323079 1.951689 0.462280 -1.788144 12.271824 2.739874 -3.590825 20.093779 -2.945699 -3.185451 -4.259400 -2.326561 3.335824 6.931306 -4.665678 -1.666997 -12.841853 -8.014343 -129.963750 -61.703405 153.395447 -16.792483 -18.579093 -36.682536 -1.107764 10.469747 -0.053314 20.970043 -12.299956 -4.380524 139.426419 -51.818807 -164.770581 24.469495 -3.144928 35.855088 13.651964 -57.681075 -3.109962 -125.680243 81.851266 -119.291828 4.067055 -13.776516 -13.119298 -0.010772 0.001925 -0.004891 -17.993094 -58.009404 9.500653 100.397227 82.368625 93.968725 -9.282691 -8.867732 1.259298 -0.009052 0.004733 -0.004110
-6.966806 126.708444 33.910037 175.907931 -23.620215 -3.317037 -1.956823 13.662365 2.991559 -0.181336 1.096498 0.276042 -0.325157 1.959222 0.460997 -1.790883 12.239142 2.722747 -3.606681 20.128121 -2.971456 -3.185908 -4.282856 -2.353063 3.342564 7.017305 -4.646511 -1.747703 -12.831093 -7.962530 -130.085946 -61.672409 153.487252 -16.794443 -18.574271 -36.688607 -1.116546 10.561556 -0.055303 21.020968 -12.298713 -4.425703 139.392032 -51.809083 -164.758950 24.467303 -3.092904 35.830076 13.643636 -57.543070 -3.068137 -125.800227 81.854669 -119.427068 4.032550 -13.810847 -13.122966 -0.011411 -0.000855 -0.005181 -17.924151 -57.869946 9.410246 100.164611 82.383044 93.721921 -9.255644 -8.805561 1.241469 0.000038 0.007181 0.000017
-6.969685 126.718343 33.926193 175.944565 -23.777196 -3.309229 -1.963706 13.664118 2.973531 -0.188508 1.131818 0.274028 -0.326842 1.968038 0.459727 -1.794217 12.244696 2.704932 -3.613430 20.131561 -2.994763 -3.183159 -4.302747 -2.379267 3.326872 7.106760 -4.624017 -1.792085 -12.847146 -7.927337 -130.208135 -61.624231 153.565921 -16.801469 -18.572476 -36.693809 -1.118693 10.601926 -0.058763 21.047983 -12.272613 -4.443938 139.375521 -51.805067 -164.757720 24.506674 -3.177817 35.807193 13.648255 -57.393397 -3.034830 -125.881943 81.856085 -119.522860 3.980463 -13.827520 -13.098845 -0.013395 -0.001492 -0.006081 -17.840044 -57.722955 9.292150 99.946429 82.379734 93.495864 -9.260732 -8.766661 1.239870 -0.000444 0.004308 -0.000202
-6.975996 126.729047 33.941855 175.974421 -23.951379 -3.280463 -1.967032 13.676771 2.934919 -0.195839 1.168695 0.272335 -0.328203 1.978015 0.458508 -1.798387 12.275234 2.689370 -3.613049 20.113746 -3.020361 -3.176809 -4.322387 -2.406762 3.332272 7.140139 -4.611668 -1.831144 -12.807693 -7.905616 -130.342227 -61.548131 153.634674 -16.814011 -18.575562 -36.695328 -1.111397 10.607510 -0.065223 21.067187 -12.233560 -4.458293 139.354947 -51.841753 -164.786420 24.513584 -3.250758 35.811333 13.658399 -57.218383 -3.024848 -125.939138 81.870842 -119.604713 3.952141 -13.834562 -13.069928 -0.042392 0.001623 -0.019248 -17.712134 -57.565878 9.124182 99.706116 82.368558 93.251496 -9.266293 -8.723884 1.235711 -0.000853 -0.001371 -0.000387
